<svg width="192" height="192" viewBox="0 0 192 192" fill="none" xmlns="http://www.w3.org/2000/svg">
<path d="M0 20C0 8.95431 8.9543 0 20 0H172C183.046 0 192 8.9543 192 20V172C192 183.046 183.046 192 172 192H20C8.95431 192 0 183.046 0 172V20Z" fill="#EEEEEE"/>
<path d="M24.5667 132.388C20.0769 126.143 17.9302 118.672 18.4651 111.155V80.4706C17.8988 72.8977 20.0131 65.3613 24.4795 59.0326C28.5181 54.1504 35.4186 51.723 45.1811 51.7502C54.9435 51.7775 61.5535 53.9186 65.011 58.1734C69.2269 63.4462 71.284 69.9655 70.8075 76.543V83.7435H52.7644V75.9293C52.7401 73.8732 52.5507 71.8218 52.1978 69.7925C51.9797 68.3234 51.2611 66.96 50.1495 65.9058C49.4632 65.3534 48.6665 64.935 47.8059 64.675C46.9453 64.4151 46.0381 64.3189 45.1375 64.3921C43.844 64.2109 42.5224 64.4082 41.3527 64.9573C40.1829 65.5063 39.2218 66.3804 38.6001 67.4605C37.4542 70.3336 36.9498 73.3973 37.1184 76.4612V115.41C36.9195 118.494 37.502 121.578 38.8181 124.41C39.4469 125.432 40.38 126.259 41.5027 126.789C42.6253 127.32 43.8887 127.531 45.1375 127.397C46.3646 127.56 47.6151 127.355 48.7108 126.811C49.8065 126.267 50.6912 125.413 51.239 124.369C52.2932 121.491 52.7518 118.45 52.5901 115.41V107.227H70.6332V114.305C71.1643 120.979 69.275 127.626 65.2725 133.165C61.4373 137.666 54.8128 139.875 45.399 139.875C35.9852 139.875 28.6198 137.42 24.5667 132.388Z" fill="#111111"/>
<path d="M93.0282 52.875H113.35L130.5 138.75H113.608L110.564 119.776H96.3295L92.8996 138.627H75.75L93.0282 52.875ZM108.677 108.98L103.275 74.4664L97.9158 108.98H108.677Z" fill="#111111"/>
<path d="M141.031 65.8156H126.75V52.875H174V65.8156H159.896V138.75H140.987L141.031 65.8156Z" fill="#111111"/>
</svg>
