<svg width="288" height="42" viewBox="0 0 288 42" fill="none" xmlns="http://www.w3.org/2000/svg">
<g filter="url(#filter0_d)">
<path d="M4.28125 21V9.54688H5.79688V14.25H11.75V9.54688H13.2656V21H11.75V15.6016H5.79688V21H4.28125ZM18.7109 21V10.8984H14.9375V9.54688H24.0156V10.8984H20.2266V21H18.7109ZM25.5312 21V9.54688H27.8125L30.5234 17.6562C30.7734 18.4115 30.9557 18.9766 31.0703 19.3516C31.2005 18.9349 31.4036 18.3229 31.6797 17.5156L34.4219 9.54688H36.4609V21H35V11.4141L31.6719 21H30.3047L26.9922 11.25V21H25.5312ZM38.8438 21V9.54688H40.3594V19.6484H46V21H38.8438ZM49.5234 21L53.9219 9.54688H55.5547L60.2422 21H58.5156L57.1797 17.5312H52.3906L51.1328 21H49.5234ZM52.8281 16.2969H56.7109L55.5156 13.125C55.151 12.1615 54.8802 11.3698 54.7031 10.75C54.5573 11.4844 54.3516 12.2135 54.0859 12.9375L52.8281 16.2969ZM66.6875 17.9609L68.0703 18.1406C67.9193 19.0938 67.5312 19.8411 66.9062 20.3828C66.2865 20.9193 65.5234 21.1875 64.6172 21.1875C63.4818 21.1875 62.5677 20.8177 61.875 20.0781C61.1875 19.3333 60.8438 18.2682 60.8438 16.8828C60.8438 15.987 60.9922 15.2031 61.2891 14.5312C61.5859 13.8594 62.0365 13.3568 62.6406 13.0234C63.25 12.6849 63.9115 12.5156 64.625 12.5156C65.526 12.5156 66.263 12.7448 66.8359 13.2031C67.4089 13.6562 67.776 14.3021 67.9375 15.1406L66.5703 15.3516C66.4401 14.7943 66.2083 14.375 65.875 14.0938C65.5469 13.8125 65.1484 13.6719 64.6797 13.6719C63.9714 13.6719 63.3958 13.9271 62.9531 14.4375C62.5104 14.9427 62.2891 15.7448 62.2891 16.8438C62.2891 17.9583 62.5026 18.7682 62.9297 19.2734C63.3568 19.7786 63.9141 20.0312 64.6016 20.0312C65.1536 20.0312 65.6146 19.862 65.9844 19.5234C66.3542 19.1849 66.5885 18.6641 66.6875 17.9609ZM74.6875 19.9766C74.1667 20.4193 73.6641 20.7318 73.1797 20.9141C72.7005 21.0964 72.1849 21.1875 71.6328 21.1875C70.7214 21.1875 70.0208 20.9661 69.5312 20.5234C69.0417 20.0755 68.7969 19.5052 68.7969 18.8125C68.7969 18.4062 68.888 18.0365 69.0703 17.7031C69.2578 17.3646 69.5 17.0938 69.7969 16.8906C70.099 16.6875 70.4375 16.5339 70.8125 16.4297C71.0885 16.3568 71.5052 16.2865 72.0625 16.2188C73.1979 16.0833 74.0339 15.9219 74.5703 15.7344C74.5755 15.5417 74.5781 15.4193 74.5781 15.3672C74.5781 14.7943 74.4453 14.3906 74.1797 14.1562C73.8203 13.8385 73.2865 13.6797 72.5781 13.6797C71.9167 13.6797 71.4271 13.7969 71.1094 14.0312C70.7969 14.2604 70.5651 14.6693 70.4141 15.2578L69.0391 15.0703C69.1641 14.4818 69.3698 14.0078 69.6562 13.6484C69.9427 13.2839 70.3568 13.0052 70.8984 12.8125C71.4401 12.6146 72.0677 12.5156 72.7812 12.5156C73.4896 12.5156 74.0651 12.599 74.5078 12.7656C74.9505 12.9323 75.276 13.1432 75.4844 13.3984C75.6927 13.6484 75.8385 13.9661 75.9219 14.3516C75.9688 14.5911 75.9922 15.0234 75.9922 15.6484V17.5234C75.9922 18.8307 76.0208 19.6589 76.0781 20.0078C76.1406 20.3516 76.2604 20.6823 76.4375 21H74.9688C74.8229 20.7083 74.7292 20.3672 74.6875 19.9766ZM74.5703 16.8359C74.0599 17.0443 73.2943 17.2214 72.2734 17.3672C71.6953 17.4505 71.2865 17.5443 71.0469 17.6484C70.8073 17.7526 70.6224 17.9062 70.4922 18.1094C70.362 18.3073 70.2969 18.5286 70.2969 18.7734C70.2969 19.1484 70.4375 19.4609 70.7188 19.7109C71.0052 19.9609 71.4219 20.0859 71.9688 20.0859C72.5104 20.0859 72.9922 19.9688 73.4141 19.7344C73.8359 19.4948 74.1458 19.1693 74.3438 18.7578C74.4948 18.4401 74.5703 17.9714 74.5703 17.3516V16.8359ZM83.5625 21V19.9531C83.0365 20.776 82.263 21.1875 81.2422 21.1875C80.5807 21.1875 79.9714 21.0052 79.4141 20.6406C78.862 20.276 78.4323 19.7682 78.125 19.1172C77.8229 18.4609 77.6719 17.7083 77.6719 16.8594C77.6719 16.0312 77.8099 15.2812 78.0859 14.6094C78.362 13.9323 78.776 13.4141 79.3281 13.0547C79.8802 12.6953 80.4974 12.5156 81.1797 12.5156C81.6797 12.5156 82.125 12.6224 82.5156 12.8359C82.9062 13.0443 83.224 13.3177 83.4688 13.6562V9.54688H84.8672V21H83.5625ZM79.1172 16.8594C79.1172 17.9219 79.3411 18.7161 79.7891 19.2422C80.237 19.7682 80.7656 20.0312 81.375 20.0312C81.9896 20.0312 82.5104 19.7812 82.9375 19.2812C83.3698 18.776 83.5859 18.0078 83.5859 16.9766C83.5859 15.8411 83.3672 15.0078 82.9297 14.4766C82.4922 13.9453 81.9531 13.6797 81.3125 13.6797C80.6875 13.6797 80.1641 13.9349 79.7422 14.4453C79.3255 14.9557 79.1172 15.7604 79.1172 16.8594ZM92.7656 18.3281L94.2188 18.5078C93.9896 19.3568 93.5651 20.0156 92.9453 20.4844C92.3255 20.9531 91.5339 21.1875 90.5703 21.1875C89.3568 21.1875 88.3932 20.8151 87.6797 20.0703C86.9714 19.3203 86.6172 18.2708 86.6172 16.9219C86.6172 15.526 86.9766 14.4427 87.6953 13.6719C88.4141 12.901 89.3464 12.5156 90.4922 12.5156C91.6016 12.5156 92.5078 12.8932 93.2109 13.6484C93.9141 14.4036 94.2656 15.4661 94.2656 16.8359C94.2656 16.9193 94.263 17.0443 94.2578 17.2109H88.0703C88.1224 18.1224 88.3802 18.8203 88.8438 19.3047C89.3073 19.7891 89.8854 20.0312 90.5781 20.0312C91.0938 20.0312 91.5339 19.8958 91.8984 19.625C92.263 19.3542 92.5521 18.9219 92.7656 18.3281ZM88.1484 16.0547H92.7812C92.7188 15.3568 92.5417 14.8333 92.25 14.4844C91.8021 13.9427 91.2214 13.6719 90.5078 13.6719C89.862 13.6719 89.3177 13.888 88.875 14.3203C88.4375 14.7526 88.1953 15.3307 88.1484 16.0547ZM95.9922 21V12.7031H97.25V13.8672C97.5104 13.4609 97.8568 13.1354 98.2891 12.8906C98.7214 12.6406 99.2135 12.5156 99.7656 12.5156C100.38 12.5156 100.883 12.6432 101.273 12.8984C101.669 13.1536 101.948 13.5104 102.109 13.9688C102.766 13 103.62 12.5156 104.672 12.5156C105.495 12.5156 106.128 12.7448 106.57 13.2031C107.013 13.6562 107.234 14.3568 107.234 15.3047V21H105.836V15.7734C105.836 15.2109 105.789 14.8073 105.695 14.5625C105.607 14.3125 105.443 14.112 105.203 13.9609C104.964 13.8099 104.682 13.7344 104.359 13.7344C103.776 13.7344 103.292 13.9297 102.906 14.3203C102.521 14.7057 102.328 15.3255 102.328 16.1797V21H100.922V15.6094C100.922 14.9844 100.807 14.5156 100.578 14.2031C100.349 13.8906 99.974 13.7344 99.4531 13.7344C99.0573 13.7344 98.6901 13.8385 98.3516 14.0469C98.0182 14.2552 97.776 14.5599 97.625 14.9609C97.474 15.362 97.3984 15.9401 97.3984 16.6953V21H95.9922ZM109.258 24.1953L109.102 22.875C109.409 22.9583 109.677 23 109.906 23C110.219 23 110.469 22.9479 110.656 22.8438C110.844 22.7396 110.997 22.5938 111.117 22.4062C111.206 22.2656 111.349 21.9167 111.547 21.3594C111.573 21.2812 111.615 21.1667 111.672 21.0156L108.523 12.7031H110.039L111.766 17.5078C111.99 18.1172 112.19 18.7578 112.367 19.4297C112.529 18.7839 112.721 18.1536 112.945 17.5391L114.719 12.7031H116.125L112.969 21.1406C112.63 22.0521 112.367 22.6797 112.18 23.0234C111.93 23.487 111.643 23.8255 111.32 24.0391C110.997 24.2578 110.612 24.3672 110.164 24.3672C109.893 24.3672 109.591 24.3099 109.258 24.1953Z" fill="#444444"/>
<path d="M270.643 0.0157537L270.5 0L257 1.40733V26.0129L270.5 34L284 26.0129V1.40733L270.643 0.0157537ZM282.234 25.0151L270.5 31.9573L258.766 25.0151V14.9293L270.451 21.8451L270.47 23.0984L262.454 18.3548L262.443 19.5801L270.489 24.3885L270.509 25.675L262.464 20.9174L262.454 22.1427L270.5 26.9511L278.624 22.1182V20.8929V16.909L282.243 14.7595L282.234 25.0151ZM282.234 13.4519L279.015 15.3319L277.533 16.2071L270.467 12.0201L270.456 13.2454L276.496 16.818L276.443 16.8495L276.313 16.9247L275.454 17.4166L270.467 14.4689L270.456 15.6942L274.392 18.0222L273.459 18.6314L273.438 18.6436L270.467 16.902L270.456 18.1273L272.403 19.2615L270.416 20.4483L258.797 13.5762L270.435 6.61831L282.234 13.4519ZM282.234 12.2266L270.44 5.31075L258.766 12.2196V2.9897L270.5 1.76442L282.234 2.9897V12.2266Z" fill="#666666"/>
</g>
<defs>
<filter id="filter0_d" x="0.28125" y="0" width="287.719" height="42" filterUnits="userSpaceOnUse" color-interpolation-filters="sRGB">
<feFlood flood-opacity="0" result="BackgroundImageFix"/>
<feColorMatrix in="SourceAlpha" type="matrix" values="0 0 0 0 0 0 0 0 0 0 0 0 0 0 0 0 0 0 127 0" result="hardAlpha"/>
<feOffset dy="4"/>
<feGaussianBlur stdDeviation="2"/>
<feComposite in2="hardAlpha" operator="out"/>
<feColorMatrix type="matrix" values="0 0 0 0 0 0 0 0 0 0 0 0 0 0 0 0 0 0 0.25 0"/>
<feBlend mode="normal" in2="BackgroundImageFix" result="effect1_dropShadow"/>
<feBlend mode="normal" in="SourceGraphic" in2="effect1_dropShadow" result="shape"/>
</filter>
</defs>
</svg>
